<?xml version="1.0" encoding="utf-8"?>
<!-- Generator: Adobe Illustrator 22.0.1, SVG Export Plug-In . SVG Version: 6.00 Build 0)  -->
<svg version="1.1" id="Layer_1" xmlns="http://www.w3.org/2000/svg" xmlns:xlink="http://www.w3.org/1999/xlink" x="0px" y="0px"
	 viewBox="0 0 630 410.9" style="enable-background:new 0 0 630 410.9;" xml:space="preserve">
<style type="text/css">
	.st0{fill:none;stroke:#ABC4D6;stroke-width:20;stroke-miterlimit:10;}
</style>
<g id="LKSKub_1_">
	<g>
		<path class="st0" d="M307.2,282.9c0,2.5,0,4.5,0,6.4c0,32.2,0,64.3,0,96.5c0,10.1-6.2,16.2-15,14.7c-2.7-0.5-5.4-1.8-7.7-3.4
			c-53.8-36.1-107.5-72.3-161.2-108.5c-34.8-23.4-69.6-46.9-104.5-70.3c-11.9-8-11.8-17.9,0.1-25.9c81.8-55,163.6-110.1,245.4-165.1
			c6.8-4.6,13.6-9.1,20.3-13.7c5-3.5,10.3-5,15.9-1.9c5.5,3,6.9,8.1,6.9,14c-0.1,29.8,0.1,59.7-0.2,89.5c-0.1,5.1,1.8,6.5,6.3,7.1
			c39.9,5.4,78.7,15.3,116.3,29.6c42.8,16.3,82.8,37.4,116.8,68.7c33.1,30.4,56.1,67,66.8,110.8c4.5,18.3,6.6,37,6.6,55.9
			c0,6.8-4,11.9-10,13.3c-6,1.4-11.9-1.3-14.9-7.3c-15.4-29.8-39-51.6-67.3-68.7c-30.4-18.3-63.5-28.7-98.4-34.2
			c-39.3-6.2-78.9-7.4-118.6-7.9C309.9,282.5,308.9,282.7,307.2,282.9z"/>
	</g>
</g>
</svg>
